<?xml version="1.0" encoding="UTF-8" standalone="no"?>
<!DOCTYPE svg PUBLIC "-//W3C//DTD SVG 1.1//EN"
 "http://www.w3.org/Graphics/SVG/1.1/DTD/svg11.dtd">
<!-- Generated by graphviz version 2.43.0 (0)
 -->
<!-- Title: nexus_demo Pages: 1 -->
<svg width="596pt" height="44pt"
 viewBox="0.00 0.00 596.00 44.00" xmlns="http://www.w3.org/2000/svg" xmlns:xlink="http://www.w3.org/1999/xlink">
<g id="graph0" class="graph" transform="scale(1 1) rotate(0) translate(4 40)">
<title>nexus_demo</title>
<polygon fill="white" stroke="transparent" points="-4,4 -4,-40 592,-40 592,4 -4,4"/>
<!-- cpython:nexus_bench.b2_python_extension -->
<g id="node1" class="node">
<title>cpython:nexus_bench.b2_python_extension</title>
<path fill="none" stroke="black" d="M309,-36C309,-36 12,-36 12,-36 6,-36 0,-30 0,-24 0,-24 0,-12 0,-12 0,-6 6,0 12,0 12,0 309,0 309,0 315,0 321,-6 321,-12 321,-12 321,-24 321,-24 321,-30 315,-36 309,-36"/>
<text text-anchor="middle" x="160.5" y="-14.3" font-family="Helvetica,sans-Serif" font-size="14.00">cpython:nexus_bench.b2_python_extension</text>
</g>
<!-- native:_nexus_bench_ext -->
<g id="node2" class="node">
<title>native:_nexus_bench_ext</title>
<path fill="none" stroke="black" d="M576,-36C576,-36 409,-36 409,-36 403,-36 397,-30 397,-24 397,-24 397,-12 397,-12 397,-6 403,0 409,0 409,0 576,0 576,0 582,0 588,-6 588,-12 588,-12 588,-24 588,-24 588,-30 582,-36 576,-36"/>
<text text-anchor="middle" x="492.5" y="-14.3" font-family="Helvetica,sans-Serif" font-size="14.00">native:_nexus_bench_ext</text>
</g>
<!-- cpython:nexus_bench.b2_python_extension&#45;&gt;native:_nexus_bench_ext -->
<g id="edge1" class="edge">
<title>cpython:nexus_bench.b2_python_extension&#45;&gt;native:_nexus_bench_ext</title>
<path fill="none" stroke="black" d="M321.18,-18C343.38,-18 365.71,-18 386.55,-18"/>
<polygon fill="black" stroke="black" points="386.66,-21.5 396.66,-18 386.66,-14.5 386.66,-21.5"/>
<text text-anchor="middle" x="359" y="-21.8" font-family="Helvetica,sans-Serif" font-size="14.00">direct</text>
</g>
</g>
</svg>
